<?xml version="1.0" encoding="iso-8859-1"?>
<!-- Generator: Adobe Illustrator 19.0.0, SVG Export Plug-In . SVG Version: 6.00 Build 0)  -->
<svg version="1.1" id="Layer_1" xmlns="http://www.w3.org/2000/svg" xmlns:xlink="http://www.w3.org/1999/xlink" x="0px" y="0px"
	 viewBox="0 0 512 512" style="enable-background:new 0 0 512 512;" xml:space="preserve">
<path style="fill:#F4B2B0;" d="M396.402,331.216l82.307,82.307c18.926,18.926,18.926,49.896,0,68.822l0,0
	c-18.926,18.926-49.896,18.926-68.822,0l-85.349-85.349"/>
<path style="fill:#B3404A;" d="M444.296,512c-16.414,0-32.826-6.248-45.322-18.742l-85.35-85.35c-6.026-6.026-6.026-15.797,0-21.824
	c6.027-6.026,15.795-6.026,21.824,0l85.35,85.35c12.956,12.957,34.039,12.959,47.001,0c12.956-12.957,12.956-34.042-0.002-47
	l-82.307-82.307c-6.026-6.026-6.026-15.797,0-21.824c6.027-6.024,15.795-6.024,21.824,0l82.307,82.307
	c24.989,24.99,24.989,65.654,0,90.644C477.124,505.752,460.71,512,444.296,512z"/>
<path style="fill:#F4B2B0;" d="M222.901,116.641L222.901,116.641c17.295,0,31.316,14.021,31.316,31.316v39.145h39.145
	c17.295,0,31.316,14.021,31.316,31.316l0,0c0,17.295-14.021,31.316-31.316,31.316h-39.145v39.145
	c0,17.295-14.021,31.316-31.316,31.316l0,0c-17.295,0-31.316-14.021-31.316-31.316v-39.145H152.44
	c-17.295,0-31.316-14.021-31.316-31.316l0,0c0-17.295,14.021-31.316,31.316-31.316h39.145v-39.144
	C191.586,130.661,205.606,116.641,222.901,116.641z"/>
<g>
	<path style="fill:#B3404A;" d="M222.901,335.626c-25.777,0-46.746-20.971-46.746-46.746v-23.714h-23.716
		c-25.776,0-46.746-20.971-46.746-46.747s20.971-46.746,46.746-46.746h23.714v-23.714c0-25.777,20.971-46.746,46.746-46.746
		c25.777,0,46.748,20.971,46.748,46.746v23.714h23.713c25.777,0,46.748,20.971,46.748,46.746s-20.971,46.746-46.748,46.746h-23.713
		v23.714C269.648,314.657,248.677,335.626,222.901,335.626z M152.439,202.533c-8.759,0-15.885,7.126-15.885,15.885
		c0,8.759,7.126,15.885,15.885,15.885h39.145c8.523,0,15.431,6.908,15.431,15.431v39.145c0,8.759,7.126,15.885,15.885,15.885l0,0
		c8.759,0,15.885-7.126,15.885-15.885v-39.144c0-8.522,6.908-15.431,15.431-15.431h39.145c8.76,0,15.886-7.126,15.886-15.885
		c0-8.759-7.126-15.885-15.886-15.885h-39.145c-8.522,0-15.431-6.908-15.431-15.431v-39.145c0-8.759-7.126-15.885-15.885-15.885
		c-8.759,0-15.885,7.126-15.885,15.885v39.145c0,8.523-6.908,15.431-15.431,15.431h-39.145V202.533z"/>
	<path style="fill:#B3404A;" d="M222.901,438.529c-120.903,0-219.264-98.361-219.264-219.264S101.998,0,222.901,0
		s219.264,98.361,219.264,219.264S343.804,438.529,222.901,438.529z M222.901,30.862c-103.886,0-188.402,84.517-188.402,188.402
		s84.517,188.402,188.402,188.402s188.402-84.517,188.402-188.402S326.787,30.862,222.901,30.862z"/>
</g>
<g>
</g>
<g>
</g>
<g>
</g>
<g>
</g>
<g>
</g>
<g>
</g>
<g>
</g>
<g>
</g>
<g>
</g>
<g>
</g>
<g>
</g>
<g>
</g>
<g>
</g>
<g>
</g>
<g>
</g>
</svg>
